<svg xmlns="http://www.w3.org/2000/svg" width="250" height="250" viewBox="0 0 250 250" fill="none">
<rect width="250" height="250" fill="#FEFFFE"/>
<path d="M 7,189.88 H 22.11 V 194.61 H 11.79 V 197.39 H 16.26 C 22.08,197.39 23.98,199.94 23.98,203.44 C 23.98,207.22 21.81,209.75 16.32,209.75 H 6.96 V 189.88 H 7 Z M 15.96,205.42 C 18.19,205.42 18.85,204.58 18.85,203.11 C 18.85,201.76 18.07,200.92 15.87,200.92 H 11.79 V 205.42 H 15.96 Z" fill="#144D2C"/>
<path d="M 25.59,200.01 C 25.59,192.81 30.61,189.51 36.25,189.51 C 41.74,189.51 46.86,192.75 46.86,200.01 C 46.86,207.07 41.89,210.15 36.22,210.15 C 30.49,210.15 25.59,206.89 25.59,200.01 Z M 41.62,199.98 C 41.62,195.74 38.93,194.09 36.25,194.09 C 33.48,194.09 30.86,195.86 30.86,199.98 C 30.86,203.88 33.45,205.89 36.22,205.89 C 38.99,205.89 41.62,203.85 41.62,199.98 Z" fill="#144D2C"/>
<path d="M 48.18,205.39 C 50.71,205.39 51.52,203.82 51.73,198.09 L 51.94,189.88 H 66.99 V 209.75 H 62.12 V 194.34 H 56.45 L 56.24,200.01 C 55.91,207.95 53.81,210.06 48.88,210.06 C 48.33,210.06 47.77,210 47.28,209.81 V 205.21 C 47.56,205.33 47.92,205.39 48.18,205.39 Z" fill="#144D2C"/>
<path d="M 70.98,189.88 H 76.22 V 196.85 H 80.66 C 86.86,196.85 88.64,199.63 88.64,203.38 C 88.64,207.13 86.63,209.75 80.81,209.75 H 70.98 V 189.88 Z M 80.09,205.8 C 82.62,205.8 83.46,204.76 83.46,203.02 C 83.46,201.39 82.56,200.34 80.06,200.34 H 76.22 V 205.8 H 80.09 Z" fill="#144D2C"/>
<path d="M 91.44,189.88 H 96.49 V 205.62 H 102.63 V 189.88 H 107.68 V 205.62 H 112.41 V 189.88 H 117.71 V 209.75 H 91.44 V 189.88 Z" fill="#144D2C"/>
<path d="M 120.12,200.01 C 120.12,192.81 125.14,189.51 130.78,189.51 C 136.27,189.51 141.39,192.75 141.39,200.01 C 141.39,207.07 136.42,210.15 130.75,210.15 C 125.02,210.15 120.12,206.89 120.12,200.01 Z M 136.15,199.98 C 136.15,195.74 133.46,194.09 130.78,194.09 C 128.01,194.09 125.39,195.86 125.39,199.98 C 125.39,203.88 127.98,205.89 130.75,205.89 C 133.52,205.89 136.15,203.85 136.15,199.98 Z" fill="#144D2C"/>
<path d="M 144.5,189.51 H 149.68 V 201.85 L 158.16,189.51 H 162.71 V 209.38 H 157.53 V 197.7 L 148.87,209.72 H 144.5 V 189.51 Z M 146.94,184.08 H 150.69 C 150.72,185.71 151.53,186.49 152.91,186.49 C 154.26,186.49 155.07,185.71 155.1,184.08 H 159.12 C 159.06,187.71 156.65,188.84 152.97,188.84 C 149.41,188.84 146.97,187.62 146.94,184.08 Z" fill="#144D2C"/>
<path d="M 172.45,205.54 H 174.08 C 176.09,204.43 176.48,200.77 176.63,195.04 L 176.75,189.86 H 191.92 V 205.54 H 194.21 V 213.51 H 189.63 V 209.72 H 177.41 V 213.51 H 172.45 V 205.54 Z M 186.74,205.39 V 194.22 H 181.56 L 181.47,196.61 C 181.29,201.21 180.71,203.91 179.6,205.39 H 186.74 Z" fill="#144D2C"/>
<path d="M 195.82,200.01 C 195.82,192.81 200.84,189.51 206.48,189.51 C 211.97,189.51 217.09,192.75 217.09,200.01 C 217.09,207.07 212.12,210.15 206.45,210.15 C 200.72,210.15 195.82,206.89 195.82,200.01 Z M 211.85,199.98 C 211.85,195.74 209.16,194.09 206.48,194.09 C 203.71,194.09 201.09,195.86 201.09,199.98 C 201.09,203.88 203.68,205.89 206.45,205.89 C 209.22,205.89 211.85,203.85 211.85,199.98 Z" fill="#144D2C"/>
<path d="M 220.44,189.88 H 225.11 L 232.14,201.91 L 238.72,189.88 H 243.21 V 209.75 H 238.6 V 199.6 L 233.76,208.43 H 230.9 L 225.63,199.51 V 209.41 H 220.44 V 189.88 Z" fill="#144D2C"/>
<path d="M 17.91,129.14 L 26.18,118.93 V 162.08 H 45.56 V 136.93 C 45.56,135.58 46.31,134.86 47.42,134.86 H 60.63 C 62.01,134.86 62.49,135.7 62.49,136.93 V 162.08 H 81.22 V 119.08 L 89.17,128.41 C 91.73,131.52 94.93,132.66 97.61,132.66 H 173.61 C 171.98,134.46 171.38,137.21 172.31,139.92 C 173.06,142.21 174.32,143.26 175.31,143.92 C 174.92,147.24 176.21,149.28 177.68,150.51 C 179.28,151.86 180.88,153.09 183.62,153.09 V 165.47 C 183.62,169.09 180.76,170.08 178.41,170.08 H 22.81 C 19.83,170.08 17.63,167.92 17.63,165.35 V 129.41 L 17.91,129.14 Z" fill="#144D2C"/>
<path d="M 8.18,120.43 L 50.83,70.01 C 51.67,68.96 52.69,68.52 54.29,68.52 H 118.97 V 83.84 L 124.76,90.49 V 61.01 H 122.91 C 121.71,61.01 121.25,60.08 121.25,59.09 V 54.43 C 121.25,53.44 121.83,52.66 122.82,52.66 H 145.94 C 147.17,52.66 147.59,53.41 147.59,54.34 V 58.73 C 147.59,59.72 147.11,60.56 146.09,60.56 H 144.23 V 69.92 C 141.06,72.11 139.62,76.11 140.79,79.58 C 141.31,81.2 142.24,82.34 143.02,83.09 C 142.21,86.36 143.68,89.14 145.22,90.55 C 146.76,91.96 148.3,92.42 149.23,92.42 C 150.28,95.19 152.54,97.02 156.07,97.02 C 159.03,97.02 161.19,95.79 163.42,93.91 L 186.39,119.86 C 187.71,121.46 187.65,122.72 187.38,123.44 C 185.72,122.66 182.92,122.48 180.36,123.53 C 177.44,124.73 175.72,126.92 175.19,127.91 H 97.94 C 95.41,127.91 93.72,126.98 92.12,124.94 L 53.61,80.65 L 13.19,126.41 C 9.08,129.82 4.53,125.43 8.18,120.43 Z" fill="#3BA551"/>
<path d="M 160.43,70.01 L 165.86,63.04 C 167.12,61.32 168.23,58.61 168.88,56.51 L 176.27,36.98 C 177.32,34.66 178.61,34.11 179.99,36.36 L 191.31,53.65 C 191.83,54.49 192.22,53.91 194.66,54.31 C 203.26,55.78 212.09,59.68 219.09,66.65 L 239.81,63.18 C 243.36,62.34 244.65,62.74 242.77,66.71 L 231.91,85.06 C 230.22,87.84 229.79,89.46 229.55,92.72 C 228.9,100.69 222.76,109.81 212.84,114.11 L 205.42,117.19 L 201.89,132.93 C 205.42,136.01 206.11,138.91 206.11,142.56 C 206.11,150.07 198.28,156.41 187.5,158.03 V 149.31 C 184.73,150.06 181.96,150.06 180.02,148.12 C 178.23,146.32 178.61,144.28 179.42,142.66 C 177.01,141.73 175.47,139.83 175.47,137.41 C 175.47,135.37 177.01,133.33 179.42,132.4 C 178.23,130.01 179.16,127.23 182.33,125.91 C 185.28,124.71 187.71,125.46 189.91,126.81 C 191.38,125.33 191.38,121.43 188.94,118.29 L 166.82,90.49 C 170.47,83.09 166.61,73.28 160.43,70.01 Z" fill="#144D2C"/>
<path d="M 149.92,70.56 C 157.66,69.21 164.93,75.17 165.26,82.91 C 165.47,88.09 161.85,93.61 156.92,93.61 C 153.63,93.61 152.09,91.42 151.44,89.38 C 149.32,90.13 147.12,89.29 146.13,87.43 C 144.93,85.11 145.52,83.06 146.91,81.41 C 145.22,80.75 143.84,79.4 143.84,77.51 C 143.84,74.61 146.1,71.14 149.92,70.56 Z" fill="#144D2C"/>
<path d="M 174.63,72.11 C 175.13,69.46 176.6,69.51 178.73,69.36 C 185.08,69.15 187.71,73.91 186.71,81.88 L 181.19,82.91 C 182.88,80.01 183.81,77.08 182.62,74.18 C 181.72,72.71 179.13,73.08 177.56,75.92 L 175.37,79.61 C 173.99,77.92 174.11,74.99 174.63,72.11 Z" fill="#FEFFFE"/>
<path d="M 200.01,89.65 C 201.98,85.75 204.75,83.33 208.71,83.45 C 212.42,83.57 215.16,86.12 216.48,88.9 C 215.52,93.08 212.78,94.43 208.92,94.09 C 209.34,90.46 208.8,87.91 207.11,86.12 C 205.01,86.71 203.09,89.11 202.16,91.72 L 200.01,89.65 Z" fill="#FEFFFE"/>
<path d="M 186.98,91.12 C 188.36,89.77 192.19,92.08 193.91,93.31 C 194.75,93.91 193.91,95.13 192.89,95.59 L 189.48,96.7 C 187.79,96.33 186.13,92.02 186.98,91.12 Z" fill="#FEFFFE"/>
</svg>