<svg id="Слой_1" data-name="Слой 1" xmlns="http://www.w3.org/2000/svg" viewBox="0 0 400 120"><defs><style>.cls-1,.cls-2,.cls-3{isolation:isolate;}.cls-2,.cls-3{font-size:36px;font-family:Montserrat-Bold, Montserrat;font-weight:700;}.cls-2,.cls-3,.cls-5{fill:#2e7d32;}.cls-2{letter-spacing:0.08em;}.cls-3{letter-spacing:0.08em;}.cls-4{fill:#144d2c;}.cls-6{fill:#fefffe;}</style></defs><g id="Слой_1-2" data-name="Слой 1-2"><g class="cls-1"><text class="cls-2" transform="translate(140 60)">Б</text><text class="cls-2" transform="translate(168.55 60)">О</text><text class="cls-3" transform="translate(200.12 60)">ЛЬШОЙ</text></g><text class="cls-2" transform="translate(140 100)">ДОМ</text></g><g id="Слой_2" data-name="Слой 2"><path class="cls-4" d="M22.5,73.8l4-7.6V98.5h9.3V79.7c0-1,.4-1.5.9-1.5h6.4c.7,0,.9.6.9,1.5V98.5h9V66.3l3.8,7c1.2,2.3,2.8,3.2,4.1,3.2H97.5a7.4,7.4,0,0,0-.6,5.4,7,7,0,0,0,1.4,3,6.8,6.8,0,0,0,1.1,4.9c.8,1,1.5,1.9,2.9,1.9V101c0,2.7-1.4,3.4-2.5,3.4H24.9c-1.4,0-2.5-1.6-2.5-3.5V74.1Z"/><path class="cls-5" d="M17.8,67.3,38.3,29.6A1.69,1.69,0,0,1,40,28.5H71.1V40l2.8,5V22.9H73c-.6,0-.8-.7-.8-1.4V18c0-.7.3-1.3.8-1.3H84.1c.6,0,.8.6.8,1.3v3.3c0,.7-.2,1.4-.7,1.4h-.9v7a8.78,8.78,0,0,0-1.7,7.2,7.12,7.12,0,0,0,1.1,2.6,7.72,7.72,0,0,0,1.1,5.6,2.57,2.57,0,0,0,1.9,1.4c.5,2.1,1.6,3.4,3.3,3.4,1.4,0,2.5-.9,3.5-2.3L103.6,67a4.3,4.3,0,0,1,.5,2.7,3,3,0,0,0-3.4.1,6.94,6.94,0,0,0-2.5,3.3H61.1c-1.2,0-2-.7-2.8-2.2L39.7,37.6,20.3,71.8C18.3,74.4,16.1,71.1,17.8,67.3Z"/><path class="cls-4" d="M91.1,29.6l2.6-5.2a32.23,32.23,0,0,0,1.5-4.9L98.8,4.9c.5-1.7,1.1-2.1,1.8-.5l5.5,12.9c.3.6.4.2,1.6.5,4.1,1.1,8.4,4,11.8,9.2l10-2.6c1.7-.6,2.3-.3,1.4,2.6l-5.2,13.7a15.25,15.25,0,0,0-1.1,5.7c-.3,6-3.3,12.8-8,16L113,64.7l-1.7,11.8c1.7,2.3,2,4.5,2,7.2a11.82,11.82,0,0,1-9,11.6V88.8c-1.3.6-2.7.6-3.6-.9a4.6,4.6,0,0,1-.3-4.1,4.29,4.29,0,0,1-1.9-3.9,4.17,4.17,0,0,1,1.9-3.7,4.29,4.29,0,0,1,1.4-4.9c1.4-.9,2.6-.3,3.6.7.7-1.1.7-4-.5-6.4L94.2,44.9C96,39.4,94.1,32.1,91.1,29.6Z"/><path class="cls-4" d="M86.1,30c3.7-1,7.2,3.4,7.4,9.2.1,3.9-1.6,8-4,8-1.6,0-2.3-1.6-2.6-3.2-1,.6-2.1-.1-2.6-1.5a5.31,5.31,0,0,1,.4-4.5,3.34,3.34,0,0,1-1.5-2.9C83.2,33,84.2,30.5,86.1,30Z"/><path class="cls-6" d="M98,31.2c.2-2,.9-1.9,2-2.1,3.1-.2,4.3,3.4,3.8,9.4l-2.7.8a10.6,10.6,0,0,0,.7-6.5c-.4-1.1-1.7-.8-2.4,1.3l-1.1,2.8A11.71,11.71,0,0,1,98,31.2Z"/><path class="cls-6" d="M110.2,44.3c.9-2.9,2.3-4.7,4.2-4.6s3.1,2,3.7,4.1c-.5,3.1-1.8,4.1-3.6,3.9.2-2.7-.1-4.6-.9-6-1,.4-1.9,2.2-2.4,4.2Z"/><path class="cls-6" d="M103.9,45.4c.7-1,2.5.7,3.3,1.6.4.4,0,1.4-.5,1.7l-1.6.8C104.3,49.3,103.5,46.1,103.9,45.4Z"/></g></svg>